<?xml version="1.0" encoding="utf-8"?>
<!-- Generator: Adobe Illustrator 18.0.0, SVG Export Plug-In . SVG Version: 6.00 Build 0)  -->
<!DOCTYPE svg PUBLIC "-//W3C//DTD SVG 1.1//EN" "http://www.w3.org/Graphics/SVG/1.1/DTD/svg11.dtd">
<svg version="1.1" id="Isolation_Mode" xmlns="http://www.w3.org/2000/svg" xmlns:xlink="http://www.w3.org/1999/xlink" x="0px"
	 y="0px" viewBox="0 0 187 349" enable-background="new 0 0 187 349" xml:space="preserve">
<g>
	<g>
		<path fill="#474747" d="M77.1,140.1c-0.5,0-0.9,0.4-0.9,0.9v47.5c0,0.5,0.4,0.9,0.9,0.9c0.5,0,0.9-0.4,0.9-0.9V141
			C78,140.5,77.6,140.1,77.1,140.1z M77.1,203.8c-0.5,0-0.9,0.4-0.9,0.9v8c0,0.5,0.4,0.9,0.9,0.9c0.5,0,0.9-0.4,0.9-0.9v-8
			C78,204.2,77.6,203.8,77.1,203.8z M77.1,218.2c-0.5,0-0.9,0.4-0.9,0.9v3.8c0,0.5,0.4,0.9,0.9,0.9c0.5,0,0.9-0.4,0.9-0.9v-3.8
			C78,218.6,77.6,218.2,77.1,218.2z M102.1,139.6c-0.5,0-0.9,0.4-0.9,0.9v17.3c0,0.5,0.4,0.9,0.9,0.9c0.5,0,0.9-0.4,0.9-0.9v-17.3
			C103,139.9,102.6,139.6,102.1,139.6z M102.1,221.9c-0.5,0-0.9,0.4-0.9,0.9v5.2c0,0.5,0.4,0.9,0.9,0.9c0.5,0,0.9-0.4,0.9-0.9v-5.2
			C103,222.3,102.6,221.9,102.1,221.9z M100.4,265.5c-0.5,0-0.9,0.4-0.9,0.9v0.9c0,0.5,0.4,0.9,0.9,0.9c0.5,0,0.9-0.4,0.9-0.9v-0.9
			C101.2,265.9,100.9,265.5,100.4,265.5z M137.7,165.5c-0.5,0-0.9,0.4-0.9,0.9v13.4c0,0.5,0.4,0.9,0.9,0.9c0.5,0,0.9-0.4,0.9-0.9
			v-13.4C138.5,165.9,138.1,165.5,137.7,165.5z M137.7,140c-0.5,0-0.9,0.4-0.9,0.9v15.7c0,0.5,0.4,0.9,0.9,0.9
			c0.5,0,0.9-0.4,0.9-0.9v-15.7C138.5,140.4,138.1,140,137.7,140z M86,335.6c-0.5,0-0.9,0.4-0.9,0.9v2.9c0,0.5,0.4,0.9,0.9,0.9
			c0.5,0,0.9-0.4,0.9-0.9v-2.9C86.8,336,86.4,335.6,86,335.6z M95.3,278.5c-0.5,0-0.9,0.4-0.9,0.9v2.9c0,0.5,0.4,0.9,0.9,0.9
			c0.5,0,0.9-0.4,0.9-0.9v-2.9C96.2,278.9,95.8,278.5,95.3,278.5z M119.9,181.5c-0.5,0-0.9,0.4-0.9,0.9v5c0,0.5,0.4,0.9,0.9,0.9
			c0.5,0,0.9-0.4,0.9-0.9v-5C120.7,181.9,120.3,181.5,119.9,181.5z M119.9,163.7c-0.5,0-0.9,0.4-0.9,0.9v10.4c0,0.5,0.4,0.9,0.9,0.9
			c0.5,0,0.9-0.4,0.9-0.9v-10.4C120.7,164.1,120.3,163.7,119.9,163.7z"/>
	</g>
</g>
<path fill="none" stroke="#474747" stroke-width="3" stroke-linecap="round" stroke-linejoin="round" stroke-miterlimit="10" d="
	M80.4,46.5c0-17.9,8.6-32.3,19.3-32.3S119,28.6,119,46.5"/>
<path fill="#F5CE9F" stroke="#474747" stroke-width="3" stroke-linecap="round" stroke-linejoin="round" stroke-miterlimit="10" d="
	M151.4,96.6c-3.6-31.4-7.2-62.7-7.2-62.7H70.4c0,0-3.5,30.3-7.1,61.2"/>
<path fill="none" stroke="#474747" stroke-width="3" stroke-linecap="round" stroke-linejoin="round" stroke-miterlimit="10" d="
	M120,88.2c4,1.8,7-2.7,7-2.7"/>
<circle fill="#474747" cx="85.6" cy="65.8" r="3.4"/>
<circle fill="#FFFFFF" cx="85.2" cy="64.4" r="1"/>
<circle fill="#474747" cx="131.6" cy="65.8" r="3.4"/>
<path fill="none" stroke="#474747" stroke-width="3" stroke-linecap="round" stroke-linejoin="round" stroke-miterlimit="10" d="
	M89.4,42.5c0-17.9,8.6-32.3,19.3-32.3S128,24.6,128,42.5"/>
<path fill="#3D9B46" stroke="#474747" stroke-width="3" stroke-linecap="round" stroke-linejoin="round" stroke-miterlimit="10" d="
	M157.9,111.9c8-15.8-1.8-24-7.6-25c-28.3,10.7-54.4,8.7-84.7-1c0,0-4.4-0.8-10.4,4.1c0,0-17.5,16.8-45.3,18.2
	c5.2,13.2,13.1,22.4,27.7,19.2c3,5.7,9.5,15.3,21.8,11.2"/>
<path fill="#3D9B46" stroke="#474747" stroke-width="3" stroke-linecap="round" stroke-linejoin="round" stroke-miterlimit="10" d="
	M153.4,109.8c2.6,22.4,4.3,40.1,4.3,40.1H54.8c0,0,2.2-19,4.9-42.1"/>
<circle fill="#FFFFFF" cx="131.2" cy="64.4" r="1"/>
<path fill="#FFFFFF" stroke="#474747" stroke-width="3" stroke-linecap="round" stroke-linejoin="round" stroke-miterlimit="10" d="
	M29.3,127.5c0,0,11.4,0.7,13.7-2.3"/>
<path fill="#F5B44C" stroke="#474747" stroke-width="3" stroke-linecap="round" stroke-linejoin="round" stroke-miterlimit="10" d="
	M61.3,97.1"/>
<path fill="none" stroke="#474747" stroke-width="3" stroke-linecap="round" stroke-linejoin="round" stroke-miterlimit="10" d="
	M151.7,98.9c0,0,0.3-5.8-16.8,1.2"/>
<path fill="none" stroke="#474747" stroke-width="3" stroke-linecap="round" stroke-linejoin="round" stroke-miterlimit="10" d="
	M60.8,98.9c0,0-0.3-5.8,16.8,1.2"/>
<line fill="none" stroke="#474747" stroke-width="3" stroke-linecap="round" stroke-linejoin="round" stroke-miterlimit="10" x1="80.5" y1="55.5" x2="86.3" y2="53.9"/>
<line fill="none" stroke="#474747" stroke-width="3" stroke-linecap="round" stroke-linejoin="round" stroke-miterlimit="10" x1="129.1" y1="52" x2="134.5" y2="54.5"/>
<path fill="#FFC569" stroke="#474747" stroke-width="3" stroke-linecap="round" stroke-linejoin="round" stroke-miterlimit="10" d="
	M89.8,111.6c4.4-2,8-4.1,9-7.1h18c1.5,3,4.6,5.2,9,7.1c0,16.3-18.2,26.2-18.2,26.2S89.8,130.3,89.8,111.6z"/>
<path fill="#474747" d="M106.8,117.5c0-3.9,2.9-6.3,6.5-6.3c2.5,0,4.1,1.3,5.1,2.7l-2.2,1.2c-0.5-0.9-1.6-1.6-2.9-1.6
	c-2.2,0-3.8,1.7-3.8,4s1.6,4,3.8,4c1.1,0,2.1-0.5,2.6-0.9l0.8-1.5h-3.2v-2.3h6.6l-2.1,4.7c-1.2,1.4-2.6,2.3-4.8,2.3
	C109.7,123.8,106.8,121.3,106.8,117.5z"/>
<path fill="#474747" d="M104.9,119.8c-0.5,1-1.6,1.7-2.8,1.7c-2.2,0-3.8-1.7-3.8-4c0-2.3,1.6-4,3.8-4c1.2,0,2.3,0.7,2.8,1.7
	c0.2-0.9,0.6-1.8,1.1-2.5c-0.9-0.8-2.2-1.4-3.9-1.4c-3.7,0-6.5,2.6-6.5,6.3c0,3.8,2.8,6.3,6.5,6.3c1.7,0,3-0.6,3.9-1.5
	C105.5,121.6,105.1,120.7,104.9,119.8z"/>
<path fill="#F5CE9F" stroke="#474747" stroke-width="3" stroke-linecap="round" stroke-linejoin="round" stroke-miterlimit="10" d="
	M49.4,124.9c0.1-0.2,0.1-0.4,0.2-0.6c1.8-3.6,6.2-4.4,11.2-0.7c5.1,3.8,6.9,6.7,3.7,9.1c-6.7,5.1-12.6-0.9-13.9-2.4"/>
<g>
	<path fill="#F5CE9F" d="M57.4,124.3c-2-4.2-5.6-11.9-5.6-11.9l7.9-4.7l1.6-10.6c-0.3,0.1-17.4,9.7-17.5,9.7c-2,1.1-2.8,3.4-1.8,5.5
		l8.6,18"/>
	<path fill="none" stroke="#474747" stroke-width="3" stroke-linecap="round" stroke-linejoin="round" stroke-miterlimit="10" d="
		M57.4,124.3c-2-4.2-5.6-11.9-5.6-11.9l7.9-4.7l1.6-10.6c-0.3,0.1-17.4,9.7-17.5,9.7c-2,1.1-2.8,3.4-1.8,5.5l8.6,18"/>
</g>
<path fill="#F5CE9F" stroke="#474747" stroke-width="3" stroke-linecap="round" stroke-linejoin="round" stroke-miterlimit="10" d="
	M164.6,123.6c-1.3-4-5.4-5.7-11.4-4.2s-7.5,4.7-4.7,7.8c5.4,5.9,10.8,3.5,12.3,2.2"/>
<g>
	<path fill="#F5CE9F" d="M156.8,120.1l4.2-4.7l-7.7-4.9l-1.4-13.4c0,0,16.7,12.4,16.7,12.4c1.9,1.1,3.1,3.9,2.1,5.9l-9.8,14"/>
	<path fill="none" stroke="#474747" stroke-width="3" stroke-linecap="round" stroke-linejoin="round" stroke-miterlimit="10" d="
		M156.8,120.1l4.2-4.7l-7.7-4.9l-1.4-13.4c0,0,16.7,12.4,16.7,12.4c1.9,1.1,3.1,3.9,2.1,5.9l-9.8,14"/>
</g>
<g>
	<path fill="none" stroke="#474747" stroke-width="3" stroke-linecap="round" stroke-linejoin="round" stroke-miterlimit="10" d="
		M132.9,83L132.9,83c-10.6,0-19.1-8.6-19.1-19.1v-5.3c0,0,8.6-2.5,19.1-2.5s19.1,2.5,19.1,2.5v5.3C152,74.4,143.4,83,132.9,83z"/>
	<path fill="none" stroke="#474747" stroke-width="3" stroke-linecap="round" stroke-linejoin="round" stroke-miterlimit="10" d="
		M82,83L82,83c-10.6,0-19.1-8.6-19.1-19.1v-5.3c0,0,8.6-2.5,19.1-2.5s19.1,2.5,19.1,2.5v5.3C101.2,74.4,92.6,83,82,83z"/>
	<path fill="none" stroke="#474747" stroke-width="3" stroke-linecap="round" stroke-linejoin="round" stroke-miterlimit="10" d="
		M101,64.8c0-3.5,2.9-6.4,6.4-6.4s6.4,2.9,6.4,6.4"/>
</g>
</svg>
