<svg xmlns="http://www.w3.org/2000/svg" xmlns:xlink="http://www.w3.org/1999/xlink" preserveAspectRatio="xMidYMid" width="1836" height="349" viewBox="0 0 1836 349">
  <defs>
    <style>
      .cls-1 {
        fill: #fff;
        fill-rule: evenodd;
      }
    </style>
  </defs>
  <path d="M1835.833,180.075 C1835.752,180.608 1835.284,181.000 1834.741,181.000 L1741.883,181.000 C1741.399,181.000 1740.975,180.686 1740.828,180.230 C1740.441,179.031 1740.180,177.790 1740.061,176.527 C1739.608,171.754 1741.139,166.904 1744.267,163.252 C1746.300,160.899 1748.773,159.173 1751.687,158.070 C1751.740,158.051 1751.795,158.034 1751.851,158.021 C1752.311,157.917 1752.770,157.813 1753.229,157.709 C1753.818,157.575 1754.187,156.995 1754.057,156.410 C1753.861,155.530 1753.715,154.637 1753.630,153.735 C1753.056,147.687 1754.997,141.542 1758.960,136.914 C1762.498,132.784 1768.581,129.000 1774.244,129.000 C1780.620,129.000 1786.180,130.058 1791.197,134.288 C1794.996,137.492 1797.651,141.898 1798.729,146.705 C1798.843,147.213 1799.297,147.557 1799.800,147.557 C1799.881,147.557 1799.964,147.549 1800.046,147.530 L1800.058,147.527 C1800.115,147.514 1800.173,147.505 1800.231,147.500 C1800.754,147.457 1801.273,147.435 1801.789,147.435 C1804.384,147.435 1806.880,147.984 1809.279,149.083 C1809.332,149.107 1809.383,149.136 1809.432,149.167 C1810.662,149.956 1811.891,150.744 1813.121,151.533 C1813.167,151.563 1813.212,151.596 1813.254,151.631 C1816.692,154.560 1818.904,158.769 1819.330,163.249 C1819.371,163.682 1819.395,164.117 1819.403,164.551 C1819.414,165.152 1819.922,165.605 1820.501,165.605 C1820.583,165.605 1820.666,165.596 1820.749,165.578 C1821.053,165.509 1821.357,165.440 1821.661,165.371 C1821.717,165.358 1821.775,165.349 1821.833,165.344 C1822.212,165.313 1822.589,165.298 1822.962,165.298 C1824.872,165.298 1826.709,165.700 1828.475,166.506 C1828.528,166.530 1828.579,166.558 1828.628,166.590 C1829.523,167.164 1830.418,167.738 1831.314,168.312 C1831.362,168.343 1831.408,168.377 1831.452,168.414 C1833.980,170.576 1835.608,173.680 1835.921,176.982 C1836.020,178.016 1835.987,179.056 1835.833,180.075 ZM1351.694,77.830 C1351.469,78.524 1350.818,78.999 1350.079,78.999 L1207.890,78.999 C1207.058,78.999 1206.341,78.404 1206.217,77.595 C1205.982,76.046 1205.931,74.467 1206.082,72.896 C1206.562,67.879 1209.054,63.164 1212.926,59.880 C1212.993,59.823 1213.063,59.772 1213.137,59.725 C1214.509,58.853 1215.880,57.980 1217.250,57.107 C1217.325,57.060 1217.403,57.017 1217.484,56.981 C1220.188,55.757 1223.002,55.145 1225.925,55.145 C1226.497,55.145 1227.074,55.168 1227.655,55.215 C1227.743,55.223 1227.832,55.236 1227.918,55.256 C1228.384,55.360 1228.849,55.465 1229.314,55.570 C1229.442,55.599 1229.569,55.612 1229.694,55.612 C1230.581,55.612 1231.359,54.924 1231.376,54.010 C1231.388,53.351 1231.425,52.691 1231.488,52.032 C1232.140,45.226 1235.528,38.831 1240.791,34.382 C1240.856,34.328 1240.924,34.278 1240.995,34.233 C1242.878,33.035 1244.760,31.836 1246.644,30.638 C1246.719,30.591 1246.797,30.548 1246.878,30.512 C1250.551,28.842 1254.374,28.007 1258.347,28.007 C1259.136,28.007 1259.932,28.040 1260.734,28.106 C1260.822,28.114 1260.911,28.127 1260.998,28.147 L1261.016,28.151 C1261.142,28.180 1261.269,28.193 1261.393,28.193 C1262.164,28.193 1262.859,27.670 1263.033,26.898 C1264.684,19.595 1268.748,12.902 1274.567,8.034 C1282.248,1.608 1290.763,-0.000 1300.525,-0.000 C1309.197,-0.000 1318.511,5.749 1323.929,12.023 C1329.998,19.054 1332.969,28.391 1332.090,37.578 C1331.960,38.949 1331.738,40.305 1331.437,41.642 C1331.237,42.532 1331.802,43.412 1332.705,43.616 C1333.408,43.774 1334.111,43.932 1334.814,44.090 C1334.900,44.109 1334.984,44.135 1335.065,44.165 C1339.528,45.840 1343.315,48.463 1346.428,52.037 C1351.218,57.585 1353.562,64.953 1352.868,72.204 C1352.685,74.123 1352.286,76.009 1351.694,77.830 ZM932.707,325.898 L925.109,330.949 C920.305,333.257 915.303,334.411 910.103,334.411 C909.023,334.411 907.935,334.361 906.838,334.261 L898.019,332.188 C893.002,330.249 888.661,327.321 884.988,323.406 C883.001,328.949 879.647,333.953 875.236,337.809 C872.809,339.422 870.383,341.036 867.955,342.649 C863.352,344.860 858.558,345.966 853.576,345.966 C852.541,345.966 851.499,345.918 850.448,345.822 C847.631,345.161 844.814,344.498 841.997,343.835 C836.907,341.867 832.548,338.824 828.904,334.735 C827.692,336.471 826.301,338.078 824.705,339.472 C822.845,340.708 820.986,341.944 819.127,343.180 C815.600,344.874 811.926,345.722 808.107,345.722 C807.315,345.722 806.516,345.686 805.711,345.613 C803.554,345.106 801.395,344.597 799.236,344.089 C796.937,343.201 794.840,342.021 792.926,340.569 C786.698,346.088 778.196,349.000 769.220,349.000 C760.363,349.000 752.726,343.843 747.691,336.630 C742.913,339.170 737.350,340.487 731.570,340.487 C716.169,340.487 704.788,323.463 706.126,308.849 C706.903,300.362 710.811,293.787 716.458,289.352 C713.543,283.887 712.085,277.620 712.625,271.727 C714.192,254.633 727.971,245.008 743.497,244.580 C745.012,235.410 749.684,226.927 756.598,220.885 L765.014,215.291 C770.333,212.736 775.873,211.458 781.632,211.458 C782.828,211.458 784.034,211.513 785.249,211.624 C788.504,212.388 791.761,213.154 795.017,213.919 C801.333,216.362 806.687,220.216 811.079,225.483 C811.249,225.688 811.399,225.910 811.565,226.121 C813.813,222.248 816.667,218.743 820.037,215.797 C822.952,213.859 825.869,211.922 828.783,209.984 C834.314,207.327 840.073,206.000 846.059,206.000 C847.301,206.000 848.552,206.057 849.814,206.171 C853.198,206.966 856.584,207.763 859.967,208.559 C866.531,211.097 872.096,215.103 876.661,220.576 C881.320,226.215 884.372,233.092 885.586,240.322 C886.767,239.553 887.948,238.785 889.128,238.017 C891.960,236.685 894.908,236.019 897.973,236.019 C898.608,236.019 899.249,236.047 899.895,236.105 C901.628,236.504 903.359,236.903 905.092,237.302 C908.452,238.574 911.300,240.582 913.638,243.325 C917.202,247.548 918.946,253.155 918.430,258.673 C918.268,260.403 917.881,262.097 917.299,263.719 C918.948,264.106 920.595,264.492 922.243,264.880 C927.946,267.086 932.780,270.566 936.745,275.322 C942.793,282.638 945.754,292.359 944.878,301.920 C944.029,311.180 939.596,319.880 932.707,325.898 ZM125.533,210.168 L120.319,213.630 C117.023,215.211 113.591,216.002 110.023,216.002 C109.282,216.002 108.535,215.968 107.782,215.899 L101.730,214.479 C98.288,213.149 95.309,211.143 92.789,208.460 C91.425,212.259 89.124,215.688 86.097,218.330 C84.432,219.436 82.767,220.542 81.101,221.648 C77.943,223.163 74.653,223.921 71.234,223.921 C70.524,223.921 69.809,223.888 69.088,223.822 C67.155,223.369 65.222,222.915 63.289,222.460 C59.796,221.112 56.805,219.027 54.304,216.224 C53.473,217.414 52.518,218.515 51.423,219.470 C50.147,220.317 48.871,221.165 47.596,222.011 C45.175,223.173 42.654,223.754 40.034,223.754 C39.490,223.754 38.942,223.729 38.389,223.679 C36.909,223.331 35.428,222.983 33.947,222.634 C32.369,222.026 30.930,221.217 29.616,220.222 C25.343,224.004 19.509,226.000 13.350,226.000 C7.272,226.000 2.032,222.466 -1.423,217.523 C-4.702,219.263 -8.519,220.166 -12.486,220.166 C-23.053,220.166 -30.863,208.499 -29.945,198.484 C-29.411,192.668 -26.730,188.162 -22.855,185.122 C-24.855,181.377 -25.856,177.082 -25.485,173.043 C-24.410,161.329 -14.955,154.733 -4.301,154.440 C-3.261,148.155 -0.055,142.342 4.689,138.201 L10.463,134.368 C14.114,132.616 17.915,131.740 21.867,131.740 C22.688,131.740 23.515,131.778 24.349,131.854 C26.582,132.378 28.818,132.903 31.051,133.427 C35.386,135.101 39.059,137.742 42.073,141.352 C42.190,141.492 42.292,141.645 42.406,141.789 C43.949,139.135 45.908,136.733 48.220,134.714 C50.220,133.386 52.222,132.059 54.222,130.730 C58.017,128.910 61.969,128.000 66.076,128.000 C66.929,128.000 67.787,128.039 68.653,128.117 C70.975,128.662 73.298,129.208 75.620,129.753 C80.124,131.493 83.943,134.238 87.075,137.989 C90.272,141.853 92.366,146.566 93.199,151.521 C94.010,150.995 94.820,150.468 95.630,149.942 C97.573,149.029 99.596,148.572 101.699,148.572 C102.135,148.572 102.575,148.592 103.018,148.631 C104.207,148.905 105.395,149.178 106.584,149.452 C108.890,150.324 110.844,151.700 112.448,153.580 C114.894,156.474 116.091,160.316 115.737,164.097 C115.625,165.283 115.360,166.444 114.960,167.556 C116.092,167.821 117.223,168.085 118.353,168.351 C122.266,169.863 125.583,172.248 128.304,175.507 C132.454,180.521 134.486,187.183 133.885,193.735 C133.302,200.081 130.260,206.043 125.533,210.168 Z" class="cls-1"/>
</svg>
